<svg xmlns="http://www.w3.org/2000/svg" width="30.2947" height="20" viewBox="0 0 30.2947 20"><defs><style>.a{fill:#767676;}</style></defs><title>img_icon_bug_tld-pro</title><path class="a" d="M7.9645,6.5964V8.371A18.1807,18.1807,0,0,1,9.3556,7.0381a3.1838,3.1838,0,0,1,3.7552.1635,4.3569,4.3569,0,0,1,1.587,3.6394,5.059,5.059,0,0,1-.64,2.51,3.3268,3.3268,0,0,1-3.7787,1.7475A3.4576,3.4576,0,0,1,8.0235,13.425c-.0165.3114-.0435.6226-.0473.9341-.0077.6163.0212,1.2339-.0082,1.8488-.0452.9476.3565,1.4244,1.2869,1.475.17.0092.3381.04.5394.0642l.0671.7529c-1.6252,0-3.2282,0-4.8312,0-.0136-.25-.0271-.5-.04-.7371a8.4941,8.4941,0,0,0,1.031-.1678c.62-.1789.5868-.7383.6-1.2158.028-1.0463.0087-2.0939.0087-3.1409,0-1.438.0143-2.8761-.0053-4.3138C6.6124,8.04,6.4957,7.69,5.5025,7.629a.3284.3284,0,0,1-.2219-.2125c-.045-.2085-.1421-.5478.1231-.5864C6.2406,6.7085,7.09,6.67,7.9645,6.5964Zm5.1216,4.1755a4.034,4.034,0,0,0-.4241-1.92,2.2715,2.2715,0,0,0-3.95-.2181,3.82,3.82,0,0,0-.572,2.6077,3.01,3.01,0,0,0,1.5761,2.6924,2.2156,2.2156,0,0,0,2.282-.3066A3.7162,3.7162,0,0,0,13.0861,10.7719Z"/><path class="a" d="M19.894,14.0768v.7944c-1.605,0-3.2008.0039-4.7965-.0108-.0858-.0008-.2172-.146-.2442-.2463a2.082,2.082,0,0,1-.0109-.5124c.205-.0167.382-.0227.5565-.0468.9436-.13,1.1682-.2825,1.2187-1.228.07-1.3114.0686-2.6311.0111-3.9435-.0471-1.0767-.6607-1.1868-1.4252-1.2164-.408-.0159-.3583-.1816-.3633-.4281-.0052-.2611-.02-.4.3724-.4081.918-.019,1.8334-.1625,2.7834-.259V8.2273c.22-.2751.3792-.4631.5264-.66a2.5386,2.5386,0,0,1,2.4638-1.0243A1.5313,1.5313,0,0,1,22.2073,8.25a1.0325,1.0325,0,0,1-.9593.7036c-.7673-.0917-.9475-.2715-1.0416-1.008-.0584-.4572-.2495-.5318-.6692-.302a2.6864,2.6864,0,0,0-1.4207,2.2587c-.0851,1.0091-.0928,2.0271-.0851,3.0408.0052.6739.5011,1.0709,1.3056,1.1322C19.5166,14.0885,19.6981,14.0768,19.894,14.0768Z"/><path class="a" d="M5.3655,13.919a2.5847,2.5847,0,0,1-2.7326,2.6839,2.6973,2.6973,0,1,1,.1546-5.3924A2.6215,2.6215,0,0,1,5.3655,13.919Z"/><path class="a" d="M30.24,10.1483a4.2258,4.2258,0,0,0-.9765-2.3068,3.8379,3.8379,0,0,0-3.0751-1.3094c-.2211,0-.3618-.0112-.5.003-.1486.0153-.2948.0543-.442.0831a3.599,3.599,0,0,0-2.8647,2.4264,5.29,5.29,0,0,0-.2594,2.5741,3.98,3.98,0,0,0,.9606,2.26,4.0394,4.0394,0,0,0,3.9232,1.23,3.6456,3.6456,0,0,0,2.9548-2.444A4.9647,4.9647,0,0,0,30.24,10.1483Zm-2.314,3.2329a2.1247,2.1247,0,0,1-3.1894.3292,4.09,4.09,0,0,1-.9832-3.7344,2.8875,2.8875,0,0,1,1.26-2.1938,2.2087,2.2087,0,0,1,3.2976,1.242,11.9166,11.9166,0,0,1,.3852,1.6407A4.8947,4.8947,0,0,1,27.9259,13.3812Z"/></svg>