<svg id="logo-white" xmlns="http://www.w3.org/2000/svg" width="165.757" height="32.687" viewBox="0 0 165.757 32.687">
  <path id="Tracé_1" data-name="Tracé 1" d="M30.824,1.453c-3.713-2.316-8.6-1.77-12.963.972C13.514-.315,8.622-.863,4.913,1.453-.955,5.12-1.667,14.564,3.32,22.546,7,28.433,12.748,31.881,17.868,31.817c5.119.064,10.87-3.384,14.547-9.27C37.4,14.563,36.692,5.12,30.824,1.452ZM6.02,20.863a19.112,19.112,0,0,1-2.3-5.273,15.067,15.067,0,0,1-.5-4.97C3.44,7.673,4.64,5.375,6.6,4.15s4.544-1.3,7.3-.2a13.388,13.388,0,0,1,1.228.568,22.5,22.5,0,0,0-3.956,4.754C8.14,14.116,7.215,19.511,8.272,23.81a19.723,19.723,0,0,1-2.253-2.947Zm26-5.273a19.158,19.158,0,0,1-2.3,5.272,19.733,19.733,0,0,1-2.254,2.954,18.929,18.929,0,0,0-2.014-13.005.583.583,0,0,0-.837-.228L17.391,15.1a.59.59,0,0,0-.188.813l1.06,1.695a.59.59,0,0,0,.814.188l4.683-2.925c.151.454.3.9.416,1.363a15.067,15.067,0,0,1,.5,4.97c-.223,2.95-1.424,5.247-3.38,6.471a6.607,6.607,0,0,1-3.35.97H17.8a6.6,6.6,0,0,1-3.35-.97c-1.958-1.224-3.159-3.521-3.381-6.472a15.091,15.091,0,0,1,.5-4.969,19.671,19.671,0,0,1,6.03-9.65,15.108,15.108,0,0,1,4.241-2.629c2.748-1.092,5.34-1.02,7.3.2s3.157,3.522,3.38,6.47a15.105,15.105,0,0,1-.49,4.964Z" fill="#fff"/>
  <path id="Tracé_2" data-name="Tracé 2" d="M74.065,12.892a7.163,7.163,0,1,0,7.366,7.2,7.232,7.232,0,0,0-7.366-7.2Zm0,10.557a3.383,3.383,0,1,1,0,.006ZM90.583,7.362H83.115a.6.6,0,0,0-.61.612V26.182a.6.6,0,0,0,.61.648h7.468c5.977,0,10.13-3.975,10.13-9.758,0-5.818-4.153-9.71-10.13-9.71Zm.177,15.622H86.673V11.2H90.76a5.508,5.508,0,0,1,5.588,5.866A5.584,5.584,0,0,1,90.76,22.984Zm24.82-9.7h-2.809a.633.633,0,0,0-.582.612v.833a4.471,4.471,0,0,0-3.884-1.835,6.842,6.842,0,0,0-6.783,7.145,6.858,6.858,0,0,0,6.755,7.171,4.531,4.531,0,0,0,3.92-1.834v.861a.587.587,0,0,0,.582.585h2.808a.571.571,0,0,0,.584-.585V13.9a.594.594,0,0,0-.592-.612Zm-6.533,10.2a3.24,3.24,0,0,1-3.256-3.412,3.26,3.26,0,1,1,6.513,0,3.239,3.239,0,0,1-3.257,3.412v0ZM131.341,7.362h-2.808a.592.592,0,0,0-.61.584v6.728a4.672,4.672,0,0,0-3.948-1.78,6.794,6.794,0,0,0-6.7,7.145,6.859,6.859,0,0,0,6.755,7.171,4.677,4.677,0,0,0,3.92-1.834v.861a.586.586,0,0,0,.583.585h2.808a.57.57,0,0,0,.584-.585V7.95a.57.57,0,0,0-.584-.588Zm-6.532,16.152a3.248,3.248,0,0,1-3.237-3.448,3.243,3.243,0,1,1,6.474,0A3.247,3.247,0,0,1,124.809,23.514ZM147.1,7.362h-2.8a.594.594,0,0,0-.612.584v6.728a4.661,4.661,0,0,0-3.947-1.78,6.794,6.794,0,0,0-6.7,7.145,6.859,6.859,0,0,0,6.755,7.171,4.678,4.678,0,0,0,3.92-1.834v.861a.587.587,0,0,0,.584.585h2.8a.568.568,0,0,0,.582-.585V7.95a.568.568,0,0,0-.582-.588Zm-6.532,16.152a3.247,3.247,0,0,1-3.237-3.448,3.243,3.243,0,1,1,6.474,0,3.244,3.244,0,0,1-3.232,3.448Zm21.906-9.283-4.19,14.37a5.343,5.343,0,0,1-5.421,4.086,6.77,6.77,0,0,1-3.35-.782c-.531-.3-.971-.58-.971-1.023a1.129,1.129,0,0,1,.25-.675l.832-1.246c.235-.348.408-.461.66-.461a.96.96,0,0,1,.554.192,3,3,0,0,0,1.748.63,1.748,1.748,0,0,0,1.88-1.306l.36-1.193h-1.7a.744.744,0,0,1-.751-.584l-3.75-12.008c-.14-.473-.011-.946.683-.946h2.954c.36,0,.613.123.771.64l2.77,9.67,2.589-9.67a.753.753,0,0,1,.75-.64h2.8c.552,0,.719.387.526.946ZM65.667,18.505v7.676a.625.625,0,0,1-.635.634H62.715a.623.623,0,0,1-.634-.634V24.166a8.781,8.781,0,0,1-6.924,3.028,9.531,9.531,0,0,1-9.681-9.908A10.012,10.012,0,0,1,55.853,7.069c4.276,0,7.694,1.839,9.212,5.537a.843.843,0,0,1,.07.309c0,.175-.116.307-.486.435l-2.706,1.042a.694.694,0,0,1-.511.009.783.783,0,0,1-.324-.371,5.668,5.668,0,0,0-5.36-3.1,5.9,5.9,0,0,0-5.922,6.188c0,3.387,2.1,6.172,6.02,6.172a5.556,5.556,0,0,0,4.469-2.037H57.87a.625.625,0,0,1-.634-.635V18.532a.625.625,0,0,1,.634-.634h7.161a.6.6,0,0,1,.635.607Z" fill="#fff"/>
  <path id="Tracé_3" data-name="Tracé 3" d="M162.55,10.442v-.186a.058.058,0,0,1,.012-.036.052.052,0,0,1,.034-.013h1.183a.051.051,0,0,1,.034.013.053.053,0,0,1,.013.036v.186a.052.052,0,0,1-.013.034.047.047,0,0,1-.034.013h-.432v1.167a.05.05,0,0,1-.048.048h-.224a.044.044,0,0,1-.032-.014.047.047,0,0,1-.015-.034V10.489H162.6a.044.044,0,0,1-.047-.047Zm2.068-.193.323.75.324-.75a.066.066,0,0,1,.026-.032.087.087,0,0,1,.044-.01h.375a.044.044,0,0,1,.047.046v1.4a.044.044,0,0,1-.045.047h-.21a.047.047,0,0,1-.035-.013.042.042,0,0,1-.013-.034V10.6l-.348.77a.084.084,0,0,1-.026.038.08.08,0,0,1-.043.01h-.172a.078.078,0,0,1-.042-.01.073.073,0,0,1-.026-.037l-.346-.77v1.06a.044.044,0,0,1-.045.046h-.216a.045.045,0,0,1-.043-.047v-1.4a.044.044,0,0,1,.047-.046h.364a.09.09,0,0,1,.042.01A.068.068,0,0,1,164.618,10.249Z" fill="#fff"/>
  <path id="Tracé_4" data-name="Tracé 4" d="M27.889,30.386v-.21a.057.057,0,0,1,.015-.04.048.048,0,0,1,.038-.015h1.342a.046.046,0,0,1,.038.015.053.053,0,0,1,.015.04v.21a.051.051,0,0,1-.015.04.048.048,0,0,1-.038.014h-.49v1.322a.05.05,0,0,1-.017.04.051.051,0,0,1-.038.017h-.253a.055.055,0,0,1-.038-.017.06.06,0,0,1-.015-.04V30.44h-.49a.048.048,0,0,1-.039-.015.051.051,0,0,1-.015-.04Zm2.345-.217.374.848.375-.848a.073.073,0,0,1,.03-.036.08.08,0,0,1,.05-.012h.4a.051.051,0,0,1,.053.053v1.592a.056.056,0,0,1-.013.037.05.05,0,0,1-.037.016h-.24a.055.055,0,0,1-.038-.016.056.056,0,0,1-.015-.037v-1.2l-.393.874a.09.09,0,0,1-.03.04.086.086,0,0,1-.05.013h-.194a.085.085,0,0,1-.048-.012.09.09,0,0,1-.03-.041l-.393-.874v1.2a.05.05,0,0,1-.015.037.053.053,0,0,1-.036.016h-.243A.05.05,0,0,1,29.7,31.8a.056.056,0,0,1-.015-.037V30.174a.05.05,0,0,1,.017-.038.047.047,0,0,1,.036-.015h.413a.083.083,0,0,1,.049.012.071.071,0,0,1,.029.036Z" fill="#fff"/>
</svg>
