<svg xmlns="http://www.w3.org/2000/svg" width="165.757" height="34" viewBox="0 0 165.757 34">
  <path id="logo" d="M32.937,1.554C28.969-.925,23.744-.335,19.085,2.593,14.44-.335,9.213-.925,5.25,1.554c-6.27,3.918-7.032,14.009-1.7,22.539C7.478,30.382,13.623,34.067,19.093,34c5.47.068,11.615-3.617,15.545-9.906,5.325-8.531,4.569-18.621-1.7-22.539ZM6.431,22.292a20.434,20.434,0,0,1-2.46-5.632,16.1,16.1,0,0,1-.534-5.31C3.675,8.2,4.958,5.742,7.049,4.436s4.855-1.385,7.8-.217c.442.176.879.38,1.313.605a24.09,24.09,0,0,0-4.227,5.082C8.7,15.085,7.71,20.848,8.839,25.443a20.911,20.911,0,0,1-2.408-3.151Zm27.786-5.634a20.482,20.482,0,0,1-2.46,5.632,21.1,21.1,0,0,1-2.408,3.157,20.231,20.231,0,0,0-2.152-13.9.625.625,0,0,0-.895-.243l-7.72,4.823a.631.631,0,0,0-.2.871l1.133,1.811a.63.63,0,0,0,.869.2l5-3.127c.162.486.324.971.445,1.457a16.1,16.1,0,0,1,.536,5.3c-.238,3.151-1.521,5.606-3.612,6.914A7.059,7.059,0,0,1,19.177,30.6h-.16a7.051,7.051,0,0,1-3.578-1.036c-2.093-1.308-3.376-3.763-3.614-6.914a16.143,16.143,0,0,1,.534-5.31A21.015,21.015,0,0,1,18.8,7.022a16.137,16.137,0,0,1,4.531-2.806c2.936-1.169,5.7-1.091,7.8.217s3.374,3.761,3.612,6.914a16.145,16.145,0,0,1-.528,5.312Zm39.848-3.766a7.163,7.163,0,1,0,7.367,7.2,7.232,7.232,0,0,0-7.367-7.2Zm0,10.557a3.383,3.383,0,1,1,0,.007ZM90.583,7.362H83.114a.6.6,0,0,0-.61.612V26.182a.605.605,0,0,0,.61.647h7.469c5.977,0,10.13-3.975,10.13-9.757,0-5.818-4.153-9.71-10.13-9.71Zm.176,15.622H86.673V11.2H90.76a5.508,5.508,0,0,1,5.588,5.867,5.585,5.585,0,0,1-5.588,5.92Zm24.819-9.7h-2.808a.633.633,0,0,0-.582.612v.833a4.47,4.47,0,0,0-3.884-1.835,6.843,6.843,0,0,0-6.783,7.145,6.859,6.859,0,0,0,6.755,7.171,4.53,4.53,0,0,0,3.92-1.834v.861a.588.588,0,0,0,.583.584h2.808a.571.571,0,0,0,.584-.584V13.9a.594.594,0,0,0-.592-.612Zm-6.532,10.2a3.24,3.24,0,0,1-3.256-3.411,3.26,3.26,0,1,1,6.512,0,3.239,3.239,0,0,1-3.256,3.412ZM131.34,7.362h-2.808a.592.592,0,0,0-.61.584v6.727a4.671,4.671,0,0,0-3.947-1.78,6.794,6.794,0,0,0-6.7,7.145,6.858,6.858,0,0,0,6.755,7.171,4.678,4.678,0,0,0,3.92-1.834v.861a.586.586,0,0,0,.583.584h2.808a.57.57,0,0,0,.584-.584V7.95a.57.57,0,0,0-.584-.588Zm-6.532,16.151a3.247,3.247,0,0,1-3.237-3.447,3.243,3.243,0,1,1,6.474,0A3.246,3.246,0,0,1,124.809,23.514ZM147.1,7.362h-2.8a.594.594,0,0,0-.612.584v6.727a4.66,4.66,0,0,0-3.947-1.78,6.794,6.794,0,0,0-6.7,7.145,6.859,6.859,0,0,0,6.755,7.171,4.675,4.675,0,0,0,3.92-1.834v.861a.588.588,0,0,0,.584.584h2.8a.568.568,0,0,0,.583-.584V7.95a.568.568,0,0,0-.583-.587Zm-6.532,16.151a3.246,3.246,0,0,1-3.237-3.447,3.243,3.243,0,1,1,6.473,0,3.244,3.244,0,0,1-3.232,3.447Zm21.906-9.283-4.19,14.37a5.343,5.343,0,0,1-5.421,4.086,6.772,6.772,0,0,1-3.35-.782c-.531-.3-.971-.579-.971-1.023a1.122,1.122,0,0,1,.251-.675l.832-1.246c.235-.348.408-.461.66-.461a.96.96,0,0,1,.554.193,3.007,3.007,0,0,0,1.748.63,1.748,1.748,0,0,0,1.88-1.306l.359-1.193h-1.7a.745.745,0,0,1-.751-.584l-3.75-12.008c-.139-.473-.011-.945.683-.945h2.954c.361,0,.613.123.772.639l2.769,9.67,2.589-9.67a.754.754,0,0,1,.751-.639h2.8c.552,0,.719.387.526.945ZM65.667,18.5v7.676a.625.625,0,0,1-.634.634H62.715a.623.623,0,0,1-.634-.634V24.166a8.779,8.779,0,0,1-6.923,3.028,9.531,9.531,0,0,1-9.681-9.908A10.012,10.012,0,0,1,55.853,7.069c4.276,0,7.694,1.839,9.212,5.536a.843.843,0,0,1,.07.309c0,.175-.115.308-.485.435l-2.706,1.042a.694.694,0,0,1-.511.008.783.783,0,0,1-.324-.371,5.669,5.669,0,0,0-5.36-3.1,5.9,5.9,0,0,0-5.922,6.189c0,3.387,2.1,6.173,6.02,6.173a5.555,5.555,0,0,0,4.468-2.038H57.871a.625.625,0,0,1-.634-.635V18.532a.625.625,0,0,1,.634-.634h7.161a.6.6,0,0,1,.634.607Zm96.882-8.063v-.186a.045.045,0,0,1,.047-.049h1.183a.047.047,0,0,1,.034.013.051.051,0,0,1,.013.036v.186a.054.054,0,0,1-.013.034.047.047,0,0,1-.034.013h-.432v1.167a.05.05,0,0,1-.049.048h-.223a.044.044,0,0,1-.032-.014.048.048,0,0,1-.015-.034V10.489H162.6a.044.044,0,0,1-.047-.047Zm2.068-.193.324.749.324-.749a.066.066,0,0,1,.026-.032.087.087,0,0,1,.044-.01h.376a.044.044,0,0,1,.047.045v1.4a.042.042,0,0,1-.012.034.044.044,0,0,1-.033.013h-.21a.047.047,0,0,1-.034-.013.043.043,0,0,1-.013-.034V10.6l-.348.77a.084.084,0,0,1-.026.037.079.079,0,0,1-.044.01h-.172a.078.078,0,0,1-.042-.01.073.073,0,0,1-.026-.037l-.346-.77v1.06a.054.054,0,0,1-.013.034.052.052,0,0,1-.032.013h-.215a.042.042,0,0,1-.031-.013.043.043,0,0,1-.013-.034v-1.4a.044.044,0,0,1,.047-.045h.364a.086.086,0,0,1,.042.01.066.066,0,0,1,.018.032Z" fill="#fff"/>
</svg>
